<?xml version="1.0" encoding="UTF-8"?>
<svg version="1.1" xmlns="http://www.w3.org/2000/svg" width="464" height="128">
<path d="M0 0 C1.00023193 0.00523682 2.00046387 0.01047363 3.03100586 0.01586914 C4.1105957 0.0190918 5.19018555 0.02231445 6.30249023 0.02563477 C8.00695313 0.03820313 8.00695313 0.03820313 9.74584961 0.05102539 C11.45611328 0.05779297 11.45611328 0.05779297 13.20092773 0.06469727 C16.02845312 0.07652792 18.85587601 0.09301129 21.68334961 0.11352539 C24.39387296 7.19590869 27.09925891 14.28023837 29.80102539 21.3659668 C30.72138229 23.77788054 31.6429289 26.18934065 32.56567383 28.6003418 C33.8892575 32.05928818 35.20860043 35.51982573 36.52709961 38.98071289 C37.15050232 40.60576248 37.15050232 40.60576248 37.78649902 42.26364136 C38.35709045 43.76497116 38.35709045 43.76497116 38.93920898 45.29663086 C39.27674194 46.18043427 39.6142749 47.06423767 39.96203613 47.974823 C40.68334961 50.11352539 40.68334961 50.11352539 40.68334961 52.11352539 C41.34334961 52.11352539 42.00334961 52.11352539 42.68334961 52.11352539 C42.81192856 51.38921829 42.94050751 50.66491119 43.07298279 49.9186554 C43.66083798 47.21698458 44.45594233 44.80840721 45.44921875 42.23144531 C45.80951675 41.29084763 46.16981476 40.35024994 46.54103088 39.38114929 C46.92959763 38.37888809 47.31816437 37.37662689 47.71850586 36.34399414 C48.11661972 35.30785477 48.51473358 34.27171539 48.9249115 33.20417786 C50.19481399 29.90167173 51.47025455 26.60133639 52.74584961 23.30102539 C53.60884595 21.05962987 54.47148045 18.81809499 55.33374023 16.57641602 C57.44541006 11.08688744 59.56455658 5.60032975 61.68334961 0.11352539 C69.60334961 0.11352539 77.52334961 0.11352539 85.68334961 0.11352539 C87.15444589 4.52681422 87.33347764 8.99495934 87.74584961 13.61352539 C87.88216797 15.02891602 87.88216797 15.02891602 88.02124023 16.47290039 C88.61833988 23.04548593 88.76422406 29.51416996 88.68334961 36.11352539 C94.95334961 36.11352539 101.22334961 36.11352539 107.68334961 36.11352539 C112.742952 45.08282054 117.78844968 54.0531616 122.68334961 63.11352539 C125.0188223 60.20624705 126.61786859 57.35020926 128.12866211 53.94555664 C128.5656543 52.97038086 129.00264648 51.99520508 129.45288086 50.99047852 C129.90018555 49.97920898 130.34749023 48.96793945 130.80834961 47.92602539 C131.70483688 45.91083375 132.60317358 43.89646349 133.50366211 41.88305664 C133.89827637 40.99207275 134.29289063 40.10108887 134.69946289 39.18310547 C135.68334961 37.11352539 135.68334961 37.11352539 136.68334961 36.11352539 C138.46406207 36.02626316 140.24818101 36.00653498 142.03100586 36.01586914 C143.1105957 36.0190918 144.19018555 36.02231445 145.30249023 36.02563477 C147.00695312 36.03820313 147.00695312 36.03820313 148.74584961 36.05102539 C150.45611328 36.05779297 150.45611328 36.05779297 152.20092773 36.06469727 C155.02845312 36.07652792 157.85587601 36.09301129 160.68334961 36.11352539 C160.00170529 39.3864588 158.81080475 42.10327625 157.31225586 45.08618164 C156.8257959 46.05789307 156.33933594 47.02960449 155.83813477 48.03076172 C155.04995361 49.58766724 155.04995361 49.58766724 154.24584961 51.17602539 C153.70234863 52.25585693 153.15884766 53.33568848 152.59887695 54.44824219 C148.61267158 62.34195481 144.52994751 70.18045531 140.38647461 77.99243164 C137.37959597 83.66968315 134.43048898 89.37662874 131.47924805 95.08294678 C126.28239381 105.13118568 121.04024351 115.14970274 115.68334961 125.11352539 C107.43334961 125.11352539 99.18334961 125.11352539 90.68334961 125.11352539 C92.67911153 120.12412059 94.96245232 115.4096663 97.37084961 110.61352539 C97.81203125 109.72584473 98.25321289 108.83816406 98.70776367 107.92358398 C100.70380162 103.93223181 102.71959758 99.97689418 104.96850586 96.12133789 C105.6169043 95.00500977 106.26530273 93.88868164 106.93334961 92.73852539 C107.51600586 91.78204102 108.09866211 90.82555664 108.69897461 89.84008789 C110.02125623 86.17757769 109.09514389 84.69850958 107.68334961 81.11352539 C106.6683249 79.10573823 105.60269524 77.12297384 104.49584961 75.16430664 C103.87967773 74.06924805 103.26350586 72.97418945 102.62866211 71.84594727 C101.98670898 70.71737305 101.34475586 69.58879883 100.68334961 68.42602539 C100.04139648 67.28584961 99.39944336 66.14567383 98.73803711 64.97094727 C95.35639361 58.95340417 95.35639361 58.95340417 91.68334961 53.11352539 C91.73869873 53.88841309 91.79404785 54.66330078 91.85107422 55.46166992 C92.79516602 68.67895508 93.73925781 81.89624023 94.68334961 95.11352539 C87.09334961 95.11352539 79.50334961 95.11352539 71.68334961 95.11352539 C71.40620117 91.76711914 71.12905273 88.42071289 70.84350586 84.97290039 C70.57289296 81.73276195 70.3011499 78.49272015 70.02929688 75.25268555 C69.84093922 73.00050554 69.65375703 70.74822691 69.46777344 68.49584961 C69.20027539 65.25876659 68.92855506 62.02206155 68.65600586 58.78540039 C68.57367203 57.77797791 68.4913382 56.77055542 68.4065094 55.73260498 C68.32650192 54.79193176 68.24649445 53.85125854 68.1640625 52.88208008 C68.09522354 52.05601257 68.02638458 51.22994507 67.95545959 50.37884521 C67.69605891 48.21933052 67.26165379 46.20788066 66.68334961 44.11352539 C66.47259293 44.7229599 66.26183624 45.33239441 66.04469299 45.96029663 C63.85646948 52.28700703 61.66634368 58.61305653 59.47509766 64.9387207 C58.65689783 67.30150629 57.8391879 69.66446158 57.02197266 72.02758789 C55.8491803 75.4186576 54.67464393 78.8091188 53.49975586 82.19946289 C53.1330629 83.26095551 52.76636993 84.32244812 52.38856506 85.41610718 C52.04828781 86.39697296 51.70801056 87.37783875 51.35742188 88.38842773 C51.05763931 89.25446625 50.75785675 90.12050476 50.44898987 91.01278687 C49.68334961 93.11352539 49.68334961 93.11352539 48.68334961 95.11352539 C44.06334961 95.11352539 39.44334961 95.11352539 34.68334961 95.11352539 C28.4883768 78.51607265 22.58363084 61.81736422 16.68334961 45.11352539 C15.08385635 46.71301865 15.37842152 48.50794091 15.20263672 50.72509766 C15.12262924 51.70603897 15.04262177 52.68698029 14.96018982 53.69764709 C14.87785599 54.76430099 14.79552216 55.8309549 14.71069336 56.92993164 C14.62332413 58.01612289 14.5359549 59.10231415 14.44593811 60.22142029 C14.1666445 63.70596361 13.89368465 67.19097099 13.62084961 70.67602539 C13.43311414 73.03217833 13.24496857 75.38829863 13.05639648 77.74438477 C12.59317101 83.53368285 12.13850195 89.32356424 11.68334961 95.11352539 C4.09334961 95.11352539 -3.49665039 95.11352539 -11.31665039 95.11352539 C-9.94182624 75.89255389 -8.37518662 56.69892193 -6.65722656 37.50610352 C-6.31429548 33.67241939 -5.97755023 29.83821582 -5.642066 26.00387383 C-5.38003329 23.02005791 -5.11397625 20.03661119 -4.84674263 17.05325699 C-4.72048493 15.63634296 -4.59569882 14.21929699 -4.47242546 12.80212021 C-4.30226747 10.85069694 -4.12591226 8.89981697 -3.94921875 6.94897461 C-3.85088242 5.84238495 -3.75254608 4.73579529 -3.65122986 3.59567261 C-3.18760912 0.15620595 -3.18760912 0.15620595 0 0 Z " fill="#FEFEFE" transform="translate(16.316650390625,-0.113525390625)"/>
<path d="M0 0 C4.45641107 3.19019833 8.2569098 6.6700696 10.7421875 11.640625 C11.1546875 11.04894531 11.5671875 10.45726562 11.9921875 9.84765625 C17.19443592 2.72940116 22.90780993 -2.45392102 31.7421875 -4.359375 C39.94585949 -5.0771963 47.32496733 -4.26827609 54.3046875 0.328125 C54.7790625 0.76125 55.2534375 1.194375 55.7421875 1.640625 C56.0721875 0.320625 56.4021875 -0.999375 56.7421875 -2.359375 C63.6721875 -2.359375 70.6021875 -2.359375 77.7421875 -2.359375 C77.7421875 17.110625 77.7421875 36.580625 77.7421875 56.640625 C70.8121875 56.640625 63.8821875 56.640625 56.7421875 56.640625 C56.2471875 54.660625 56.2471875 54.660625 55.7421875 52.640625 C55.22269531 52.98996094 54.70320313 53.33929688 54.16796875 53.69921875 C53.47058594 54.15425781 52.77320313 54.60929687 52.0546875 55.078125 C51.37019531 55.53058594 50.68570313 55.98304687 49.98046875 56.44921875 C43.58685298 59.85245227 34.88031442 59.61361235 27.984375 57.9921875 C21.86785177 55.80370671 17.95622446 52.50113354 13.7421875 47.640625 C13.0821875 46.980625 12.4221875 46.320625 11.7421875 45.640625 C11.26910156 46.17171875 10.79601562 46.7028125 10.30859375 47.25 C3.85591449 54.14292053 -3.02500412 58.18854258 -12.54296875 58.87890625 C-24.61383353 59.11607939 -34.13716839 56.96159178 -43.2578125 48.640625 C-50.14584493 41.19410345 -51.62723067 33.85488584 -51.5390625 24.03515625 C-50.90324084 16.36114208 -47.759321 10.01987776 -42.2578125 4.640625 C-30.06465016 -5.03309249 -13.99021015 -8.42317151 0 0 Z M-26.2578125 12.640625 C-28.5351626 15.45572493 -28.5351626 15.45572493 -28.2578125 18.640625 C-21.3278125 18.640625 -14.3978125 18.640625 -7.2578125 18.640625 C-9.40314589 13.27729153 -10.36917819 12.28048753 -15.2578125 9.640625 C-19.76054987 9.640625 -22.26089572 10.64216661 -26.2578125 12.640625 Z M31.8046875 19.765625 C30.2020512 24.10217028 29.96180938 28.0823416 30.7421875 32.640625 C32.43878796 36.05477161 34.8114909 38.10180065 38.1171875 40.015625 C43.046519 41.18927536 46.43185509 41.3209899 50.9921875 38.953125 C54.28764762 36.18194263 56.38319758 34.09372277 57.0234375 29.71875 C57.22725487 25.2007984 56.65446224 22.25586261 53.7421875 18.640625 C49.43069255 14.84226242 49.43069255 14.84226242 44.0546875 13.328125 C38.8469201 13.81942381 35.31010815 15.9209701 31.8046875 19.765625 Z M-29.2578125 30.640625 C-28.55589511 34.97389054 -27.63621053 36.75905021 -24.2578125 39.640625 C-20.20875096 42.33999936 -17.01134341 42.18411744 -12.2578125 41.640625 C-8.90243623 40.29847449 -6.79992048 39.18273298 -4.2578125 36.640625 C-0.42275892 36.81899959 2.25857336 37.82140606 5.4921875 39.765625 C6.5646875 40.384375 7.6371875 41.003125 8.7421875 41.640625 C9.4021875 41.310625 10.0621875 40.980625 10.7421875 40.640625 C10.43420424 39.16051129 10.1206695 37.68155175 9.8046875 36.203125 C9.63066406 35.37941406 9.45664062 34.55570313 9.27734375 33.70703125 C8.93465756 31.66401296 8.93465756 31.66401296 7.7421875 30.640625 C5.00324665 30.55203854 2.2896548 30.52539021 -0.44921875 30.54296875 C-1.26905746 30.5443837 -2.08889618 30.54579865 -2.93357849 30.54725647 C-5.56252632 30.55287211 -8.19139023 30.56542721 -10.8203125 30.578125 C-12.59830607 30.58313799 -14.37630096 30.58770124 -16.15429688 30.59179688 C-20.52216795 30.60284661 -24.88997598 30.62012169 -29.2578125 30.640625 Z " fill="#C3FE78" transform="translate(277.2578125,38.359375)"/>
<path d="M0 0 C1.3774057 1.14295367 2.68200653 2.37292781 3.96484375 3.62109375 C4.37734375 3.22277344 4.78984375 2.82445312 5.21484375 2.4140625 C10.69364151 -2.61224527 15.82798953 -5.40642829 23.33984375 -5.81640625 C29.6410078 -5.54480435 35.36002087 -3.68590001 40.1171875 0.52734375 C44.49646961 5.32753846 46.09667266 8.69000269 46.07836914 15.20605469 C46.07825584 16.55700226 46.07825584 16.55700226 46.07814026 17.9352417 C46.07297897 18.89891663 46.06781769 19.86259155 46.0625 20.85546875 C46.06108505 21.84863098 46.0596701 22.84179321 46.05821228 23.86505127 C46.05261963 27.03376287 46.04006845 30.20240354 46.02734375 33.37109375 C46.0223278 35.52083231 46.01776506 37.67057198 46.01367188 39.8203125 C46.00350397 45.08728883 45.98392702 50.35411198 45.96484375 55.62109375 C39.03484375 55.62109375 32.10484375 55.62109375 24.96484375 55.62109375 C24.91585937 53.09195313 24.866875 50.5628125 24.81640625 47.95703125 C24.76232211 45.49457122 24.70504392 43.03220463 24.64746094 40.56982422 C24.60929156 38.86481756 24.57441809 37.15973369 24.54296875 35.45458984 C24.49705539 32.99679049 24.43910606 30.53951723 24.37890625 28.08203125 C24.36735504 27.32554291 24.35580383 26.56905457 24.34390259 25.78964233 C24.22232676 21.38241065 23.58227961 17.72427315 21.96484375 13.62109375 C20.55051169 13.39746005 19.13316757 13.19282899 17.71484375 12.99609375 C16.9259375 12.88007812 16.13703125 12.7640625 15.32421875 12.64453125 C12.51530993 12.61662818 11.23366629 12.96310805 8.96484375 14.62109375 C6.68411648 18.93953676 6.62322163 23.20788845 6.55078125 27.984375 C6.5314151 28.77635788 6.51204895 29.56834076 6.49209595 30.38432312 C6.43257143 32.90063894 6.38602417 35.41700119 6.33984375 37.93359375 C6.30163894 39.64520165 6.26258576 41.35679084 6.22265625 43.06835938 C6.1253034 47.25250385 6.04552158 51.4364619 5.96484375 55.62109375 C-0.96515625 55.62109375 -7.89515625 55.62109375 -15.03515625 55.62109375 C-15.08414063 53.09195313 -15.133125 50.5628125 -15.18359375 47.95703125 C-15.23767789 45.49457122 -15.29495608 43.03220463 -15.35253906 40.56982422 C-15.39070844 38.86481756 -15.42558191 37.15973369 -15.45703125 35.45458984 C-15.50294461 32.99679049 -15.56089394 30.53951723 -15.62109375 28.08203125 C-15.63264496 27.32554291 -15.64419617 26.56905457 -15.65609741 25.78964233 C-15.77767324 21.38241065 -16.41772039 17.72427315 -18.03515625 13.62109375 C-19.44948831 13.39746005 -20.86683243 13.19282899 -22.28515625 12.99609375 C-23.0740625 12.88007812 -23.86296875 12.7640625 -24.67578125 12.64453125 C-27.45424921 12.61693057 -28.76078522 13.03680966 -31.03515625 14.62109375 C-33.69203346 18.40318052 -33.38415874 22.6633506 -33.44921875 27.10546875 C-33.4685849 27.92106262 -33.48795105 28.73665649 -33.50790405 29.57696533 C-33.567552 32.17490267 -33.61402567 34.77288468 -33.66015625 37.37109375 C-33.69834967 39.13543569 -33.7374022 40.89975926 -33.77734375 42.6640625 C-33.87485449 46.98297582 -33.95453888 51.30169994 -34.03515625 55.62109375 C-40.96515625 55.62109375 -47.89515625 55.62109375 -55.03515625 55.62109375 C-55.03515625 36.15109375 -55.03515625 16.68109375 -55.03515625 -3.37890625 C-48.10515625 -3.37890625 -41.17515625 -3.37890625 -34.03515625 -3.37890625 C-33.70515625 -2.05890625 -33.37515625 -0.73890625 -33.03515625 0.62109375 C-32.5040625 0.27175781 -31.97296875 -0.07757813 -31.42578125 -0.4375 C-30.719375 -0.89253906 -30.01296875 -1.34757812 -29.28515625 -1.81640625 C-28.5890625 -2.26886719 -27.89296875 -2.72132812 -27.17578125 -3.1875 C-18.57277998 -7.97566676 -7.78049734 -5.27162296 0 0 Z " fill="#C3FE77" transform="translate(413.03515625,39.37890625)"/>
<path d="M0 0 C22.11 0 44.22 0 67 0 C67 6.6 67 13.2 67 20 C59.74 20 52.48 20 45 20 C45 44.75 45 69.5 45 95 C37.41 95 29.82 95 22 95 C22 70.25 22 45.5 22 20 C14.74 20 7.48 20 0 20 C0 13.4 0 6.8 0 0 Z " fill="#C4FE79" transform="translate(166,0)"/>
<path d="M0 0 C0.66 0.33 1.32 0.66 2 1 C-1.3 4.3 -4.6 7.6 -8 11 C-8 7.45459812 -7.40614728 6.93992636 -5.125 4.375 C-4.59132813 3.76398437 -4.05765625 3.15296875 -3.5078125 2.5234375 C-2 1 -2 1 0 0 Z " fill="#D4FE9F" transform="translate(299,38)"/>
<path d="M0 0 C0.66 0.33 1.32 0.66 2 1 C-0.97 3.97 -3.94 6.94 -7 10 C-7.66 9.67 -8.32 9.34 -9 9 C-6.31941902 5.42589203 -3.57410797 2.68058098 0 0 Z " fill="#D3FE9C" transform="translate(240,39)"/>
</svg>
